<svg width="17" height="18" viewBox="0 0 17 18" fill="none" xmlns="http://www.w3.org/2000/svg">
<path d="M2 7.86792C1.37477 7.86792 0.867924 8.37477 0.867924 9C0.867924 9.62523 1.37477 10.1321 2 10.1321V7.86792ZM16.6758 9.8005C17.1179 9.3584 17.1179 8.6416 16.6758 8.1995L9.47132 0.995017C9.02921 0.552914 8.31242 0.552914 7.87032 0.995017C7.42822 1.43712 7.42822 2.15391 7.87032 2.59601L14.2743 9L7.87032 15.404C7.42822 15.8461 7.42822 16.5629 7.87032 17.005C8.31242 17.4471 9.02921 17.4471 9.47132 17.005L16.6758 9.8005ZM2 10.1321H15.8753V7.86792L2 7.86792V10.1321Z" fill="#F2683C"/>
</svg>
