<svg width="14" height="14" fill="none" xmlns="http://www.w3.org/2000/svg"><path fill-rule="evenodd" clip-rule="evenodd" d="M6.448.374h.712c2.12 0 2.37.008 3.207.046.774.035 1.194.164 1.473.273.37.144.635.316.912.594.278.277.45.542.594.912.109.28.239.7.274 1.473.038.837.046 1.088.046 3.206s-.008 2.37-.046 3.206c-.036.774-.165 1.194-.274 1.473-.143.37-.316.634-.594.912-.277.278-.54.45-.912.593-.279.11-.7.238-1.473.274-.837.038-1.088.046-3.207.046-2.119 0-2.37-.008-3.207-.046-.773-.036-1.193-.165-1.473-.274a2.457 2.457 0 0 1-.913-.593 2.46 2.46 0 0 1-.594-.912c-.108-.28-.238-.7-.273-1.474C.662 9.247.654 8.995.654 6.876c0-2.12.008-2.37.046-3.206.035-.773.165-1.193.273-1.473.144-.37.316-.635.594-.913.278-.278.542-.45.913-.594.28-.109.7-.238 1.473-.273C4.686.384 4.97.374 6.448.372v.002Zm4.948 1.318a.952.952 0 1 0 0 1.905.952.952 0 0 0 0-1.906ZM3.084 6.88a4.076 4.076 0 1 1 8.151 0 4.076 4.076 0 0 1-8.151 0Z" fill="#18306c"/><path d="M7.161 4.234a2.645 2.645 0 1 1 0 5.291 2.645 2.645 0 0 1 0-5.29Z" fill="#18306c"/></svg>