<svg width="10" height="10" fill="none" xmlns="http://www.w3.org/2000/svg"><path fill-rule="evenodd" clip-rule="evenodd" d="M4.434.507h.492c1.463 0 1.637.005 2.215.032.534.024.824.113 1.017.188.256.1.438.219.63.41a1.7 1.7 0 0 1 .41.63c.075.193.164.483.189 1.018.026.577.031.751.031 2.213 0 1.463-.005 1.636-.031 2.214-.025.535-.114.824-.19 1.017-.099.256-.217.438-.41.63-.191.192-.373.31-.629.41-.193.075-.483.164-1.017.189-.578.026-.752.032-2.215.032-1.463 0-1.637-.006-2.214-.032-.535-.025-.825-.114-1.018-.19a1.698 1.698 0 0 1-.63-.41 1.699 1.699 0 0 1-.41-.629C.579 8.036.489 7.746.465 7.212.44 6.634.434 6.46.434 4.997c0-1.463.005-1.636.031-2.214C.49 2.25.58 1.96.654 1.766c.1-.256.218-.438.41-.63a1.7 1.7 0 0 1 .63-.41C1.887.65 2.177.56 2.712.536c.505-.022.701-.029 1.722-.03v.001Zm3.417.91a.658.658 0 1 0 0 1.315.658.658 0 0 0 0-1.315ZM2.11 5A2.814 2.814 0 1 1 7.74 5a2.814 2.814 0 0 1-5.629 0Z" fill="#18306c"/><path d="M4.926 3.173a1.827 1.827 0 1 1 0 3.653 1.827 1.827 0 0 1 0-3.653Z" fill="#18306c"/></svg>