<svg width="17" height="16" fill="none" xmlns="http://www.w3.org/2000/svg"><path fill-rule="evenodd" clip-rule="evenodd" d="M4.497 2.19C4.475 1.198 3.764.44 2.61.44 1.457.44.703 1.197.703 2.19c0 .973.732 1.752 1.864 1.752h.022c1.175 0 1.908-.779 1.908-1.752Zm-.223 3.134H.902v10.132h3.372V5.324Zm8.28-.238c2.22 0 3.883 1.448 3.883 4.56v5.81h-3.372v-5.42c0-1.362-.488-2.291-1.709-2.291-.931 0-1.486.626-1.73 1.23-.089.218-.11.52-.11.823v5.658H6.142s.044-9.181 0-10.132h3.372V6.76c.448-.69 1.25-1.673 3.04-1.673Z" fill="#18306c"/></svg>