<svg width="137" height="25" fill="none" xmlns="http://www.w3.org/2000/svg"><path d="M108.121 11.377c-.301-4.973-3.537-9.137-7.974-10.746-.09-.034-.17.077-.107.152 1.873 2.27 3.121 6.118 3.243 10.605 0 .053.044.094.096.094h4.642a.098.098 0 0 0 .098-.103l.002-.002ZM91.835.705c-4.335 1.658-7.481 5.773-7.778 10.673a.097.097 0 0 0 .098.103h4.508a.096.096 0 0 0 .096-.094c.12-4.44 1.345-8.252 3.187-10.532.062-.075-.019-.186-.109-.15h-.002ZM95.312 0c-2.793.717-5.061 5.575-5.238 11.38a.1.1 0 0 0 .098.101h5.164a.096.096 0 0 0 .096-.095V.098a.098.098 0 0 0-.12-.096V0ZM95.43 24.13V12.89a.096.096 0 0 0-.096-.096h-5.162c-.054 0-.1.045-.098.101.188 5.783 2.45 10.618 5.236 11.332.06.015.12-.032.12-.095v-.002ZM84.055 12.897c.299 4.92 3.47 9.049 7.833 10.693.092.034.17-.075.109-.15-1.865-2.265-3.11-6.087-3.24-10.552a.095.095 0 0 0-.096-.094h-4.508a.097.097 0 0 0-.098.103ZM96.87 24.183c2.721-.836 4.913-5.602 5.099-11.288a.1.1 0 0 0-.098-.102h-5.027a.096.096 0 0 0-.096.096v11.198c0 .064.062.113.124.094l-.002.002ZM96.744.138v11.246c0 .052.043.095.096.095h5.029a.099.099 0 0 0 .098-.101c-.175-5.707-2.37-10.498-5.1-11.336a.097.097 0 0 0-.125.094l.002.002ZM100.087 23.666c4.469-1.591 7.733-5.773 8.036-10.77a.098.098 0 0 0-.098-.103h-4.644a.096.096 0 0 0-.096.094c-.131 4.516-1.403 8.374-3.303 10.627-.062.075.013.186.105.152ZM24.231 12.116C24.231 5.434 18.797 0 12.116 0 5.434 0 0 5.434 0 12.116c0 6.68 5.434 12.115 12.116 12.115 6.68 0 12.115-5.434 12.115-12.115Zm-12.115 7.42c-4.091 0-7.42-3.33-7.42-7.42 0-4.091 3.329-7.42 7.42-7.42 4.09 0 7.42 3.329 7.42 7.42 0 4.09-3.33 7.42-7.42 7.42ZM36.342 23.92h4.67V4.894h8.382V.62H27.96v4.273h8.383V23.92ZM60.012.31h-4.715v23.61h4.715v-9.945h12.625v9.946h4.716V.31h-4.716v9.566H60.012V.31ZM132.58 17.218 119.535.31h-4.592v23.61h4.422V7.049l13.044 16.872H137V.31h-4.42v16.907Z" fill="#fff"/></svg>