<svg width="42" height="35" fill="none" xmlns="http://www.w3.org/2000/svg"><path d="M.78 11.579v11.84a1.727 1.727 0 0 0 1.723 1.723h5.692v-1.467c-.001-.89.002-13.284 0-13.82H2.503A1.727 1.727 0 0 0 .78 11.579ZM25.683.091a.747.747 0 0 0-.741.015L9.662 9.29v16.417l15.28 9.183c.114.072.246.11.381.11a.743.743 0 0 0 .734-.733V.729a.743.743 0 0 0-.374-.639v.001ZM41.124 13.471a.734.734 0 0 0-.733.734v6.587a.733.733 0 1 0 1.467 0v-6.587a.734.734 0 0 0-.734-.734ZM37.282 11.414a.734.734 0 0 0-.733.733V22.85a.733.733 0 1 0 1.467 0V12.147a.735.735 0 0 0-.734-.733ZM33.439 9.766a.73.73 0 0 0-.517.215.728.728 0 0 0-.217.519v13.995a.733.733 0 1 0 1.467 0V10.5a.735.735 0 0 0-.733-.734ZM29.597 13.471a.736.736 0 0 0-.734.734v6.587a.735.735 0 0 0 1.467 0v-6.587a.734.734 0 0 0-.733-.734Z" fill="#fff"/></svg>