<svg width="42" height="35" viewBox="0 0 42 35"  xmlns="http://www.w3.org/2000/svg">
<path d="M0 11.5789V23.4184C0.00183374 24.3702 0.772041 25.1405 1.72384 25.1423H7.41615V23.6752C7.41431 22.7858 7.41798 10.3906 7.41615 9.85498H1.72384C0.772088 9.85681 0.00183093 10.6271 0 11.5789Z" fill="white"/>
<path d="M24.9035 0.0911502C24.6724 -0.0353857 24.39 -0.0298835 24.1626 0.105821L8.88281 9.28957V23.9971V25.7062L24.1626 34.89C24.2763 34.9615 24.4083 35 24.544 35C24.9475 34.9945 25.2721 34.6699 25.2776 34.2665V0.728562C25.2758 0.464486 25.1327 0.222428 24.9035 0.0903662L24.9035 0.0911502Z" fill="white"/>
<path d="M40.3449 13.4712C40.1505 13.4712 39.9634 13.5482 39.8259 13.6858C39.6883 13.8233 39.6113 14.0103 39.6113 14.2048V20.7919C39.6113 21.1971 39.9396 21.5254 40.3449 21.5254C40.7502 21.5254 41.0784 21.1971 41.0784 20.7919V14.2048C41.0784 14.0104 41.0014 13.8233 40.8639 13.6858C40.7263 13.5482 40.5393 13.4712 40.3449 13.4712Z" fill="white"/>
<path d="M36.5031 11.4136C36.3087 11.4136 36.1216 11.4906 35.9841 11.6281C35.8466 11.7657 35.7695 11.9527 35.7695 12.1471V22.8496C35.7695 23.2549 36.0978 23.5832 36.5031 23.5832C36.9084 23.5832 37.2366 23.2549 37.2366 22.8496V12.1471C37.2366 11.9527 37.1596 11.7657 37.0221 11.6281C36.8845 11.4906 36.6975 11.4136 36.5031 11.4136Z" fill="white"/>
<path d="M32.6593 9.76611C32.465 9.76611 32.2797 9.84313 32.1422 9.98068C32.0028 10.1182 31.9258 10.3053 31.9258 10.4997V24.4955C31.9258 24.9008 32.254 25.229 32.6593 25.229C33.0646 25.229 33.3929 24.9008 33.3929 24.4955V10.4997C33.3929 10.3053 33.3158 10.1182 33.1783 9.98068C33.0408 9.84312 32.8537 9.76611 32.6593 9.76611Z" fill="white"/>
<path d="M28.8176 13.4712C28.6232 13.4712 28.4379 13.5482 28.3004 13.6858C28.1628 13.8233 28.084 14.0103 28.084 14.2048V20.7919C28.084 21.1971 28.4141 21.5254 28.8175 21.5254C29.2228 21.5254 29.5511 21.1971 29.5511 20.7919V14.2048C29.5511 14.0104 29.4741 13.8233 29.3365 13.6858C29.199 13.5482 29.0138 13.4712 28.8176 13.4712Z" fill="white"/>
</svg>
