<svg width="15" height="13" fill="none" xmlns="http://www.w3.org/2000/svg"><path d="m7.473 4.094.031.515-.52-.063c-1.895-.241-3.55-1.061-4.955-2.438l-.687-.683-.177.505c-.374 1.124-.135 2.311.646 3.11.416.441.322.504-.396.242-.25-.084-.468-.147-.489-.116-.073.074.177 1.03.375 1.408.27.526.822 1.04 1.426 1.345l.51.242-.604.01c-.583 0-.604.01-.541.232.208.683 1.03 1.408 1.946 1.723l.645.22-.562.337a5.86 5.86 0 0 1-2.789.777c-.468.01-.853.053-.853.084 0 .105 1.27.694 2.008.925 2.217.683 4.85.389 6.828-.777 1.405-.83 2.81-2.48 3.466-4.078.354-.85.708-2.406.708-3.152 0-.483.031-.546.614-1.124.343-.336.666-.704.729-.81.104-.199.093-.199-.438-.02-.884.315-1.01.273-.572-.2.323-.336.708-.946.708-1.124 0-.032-.156.02-.333.115-.188.105-.604.263-.916.358l-.562.178-.51-.347c-.281-.189-.677-.399-.885-.462C10.794.88 9.98.9 9.502 1.068c-1.3.473-2.123 1.692-2.03 3.026Z" fill="#18306c"/></svg>