<svg width="11" height="10" fill="none" xmlns="http://www.w3.org/2000/svg"><path d="m5.166 3.076.021.356-.36-.044c-1.307-.167-2.45-.733-3.42-1.683l-.475-.472-.122.349c-.258.776-.093 1.596.446 2.147.287.305.223.349-.273.167-.173-.058-.324-.101-.338-.08-.05.051.122.711.259.973.187.362.568.718.984.928l.353.167-.417.008c-.403 0-.417.007-.374.16.144.47.711.972 1.344 1.19l.446.152-.389.232a4.046 4.046 0 0 1-1.926.537c-.323.007-.59.036-.59.058 0 .072.878.479 1.388.638 1.53.472 3.35.269 4.715-.537.97-.573 1.94-1.712 2.393-2.815.245-.588.489-1.662.489-2.177 0-.334.021-.377.424-.776.237-.232.46-.486.503-.559.072-.138.065-.138-.302-.014-.61.217-.697.188-.395-.138.223-.232.489-.653.489-.777 0-.021-.108.015-.23.08a4.01 4.01 0 0 1-.633.247l-.388.123-.352-.24a2.926 2.926 0 0 0-.611-.318C7.458.856 6.898.87 6.567.987c-.898.326-1.466 1.168-1.401 2.09Z" fill="#18306C"/></svg>