<svg width="38" height="39" fill="none" xmlns="http://www.w3.org/2000/svg"><path d="M38 17.984c-.475-7.85-5.584-14.425-12.589-16.965-.142-.053-.267.122-.17.24 2.959 3.584 4.929 9.658 5.122 16.743a.15.15 0 0 0 .151.148h7.328c.09 0 .16-.074.155-.163l.003-.003ZM12.286 1.135C5.442 3.752.475 10.249.006 17.984a.154.154 0 0 0 .154.163h7.118A.151.151 0 0 0 7.43 18c.19-7.011 2.125-13.028 5.032-16.627.098-.118-.03-.293-.172-.237h-.003ZM17.775.024c-4.41 1.13-7.99 8.8-8.27 17.964 0 .087.07.16.155.16h8.153a.152.152 0 0 0 .152-.15V.177a.155.155 0 0 0-.19-.151V.024ZM17.962 38.119V20.374a.152.152 0 0 0-.152-.151H9.66a.155.155 0 0 0-.154.16c.297 9.129 3.869 16.763 8.266 17.89.095.024.19-.05.19-.151v-.003ZM0 20.386c.472 7.767 5.477 14.286 12.366 16.881.146.054.27-.118.173-.237-2.944-3.575-4.91-9.61-5.115-16.659a.15.15 0 0 0-.152-.148H.155a.154.154 0 0 0-.155.163ZM20.23 38.203c4.296-1.32 7.755-8.844 8.05-17.822a.158.158 0 0 0-.155-.16h-7.937a.152.152 0 0 0-.15.151v17.68c0 .1.097.178.195.148l-.003.003ZM20.034.24v17.754c0 .083.069.151.152.151h7.939a.155.155 0 0 0 .154-.16c-.276-9.01-3.741-16.573-8.052-17.897a.154.154 0 0 0-.196.149l.003.003ZM25.305 37.387c7.056-2.513 12.21-9.114 12.687-17.003a.153.153 0 0 0-.154-.163h-7.332a.151.151 0 0 0-.15.148c-.209 7.13-2.217 13.22-5.217 16.778-.098.119.021.294.166.24Z" fill="#18306C"/></svg>