<svg width="12" height="12" fill="none" xmlns="http://www.w3.org/2000/svg"><path fill-rule="evenodd" clip-rule="evenodd" d="M2.965 2.07C2.95 1.386 2.46.863 1.663.863S.346 1.385.346 2.071c0 .672.505 1.21 1.287 1.21h.015c.812 0 1.317-.538 1.317-1.21Zm-.153 2.165H.483v6.996h2.329V4.235Zm5.717-.165c1.533 0 2.681 1 2.681 3.15v4.01H8.882V7.489c0-.94-.337-1.582-1.18-1.582-.643 0-1.026.432-1.195.85-.061.15-.076.358-.076.568v3.907H4.1s.031-6.34 0-6.996h2.33v.99c.309-.476.862-1.155 2.098-1.155Z" fill="#18306C"/></svg>