<svg width="48" height="43" viewBox="0 0 48 43" fill="none" xmlns="http://www.w3.org/2000/svg">
<g filter="url(#filter0_d_2_818)">
<path d="M4.55078 11.587V23.4265C4.55261 24.3783 5.32282 25.1485 6.27462 25.1503H11.9669V23.6833C11.9651 22.7938 11.9688 10.3987 11.9669 9.86304H6.27462C5.32287 9.86487 4.55261 10.6352 4.55078 11.587Z" fill="white"/>
<path d="M29.4543 0.0992068C29.2232 -0.027329 28.9407 -0.0218269 28.7134 0.113878L13.4336 9.29762V24.0051V25.7143L28.7134 34.898C28.8271 34.9695 28.9591 35.0081 29.0948 35.0081C29.4983 35.0026 29.8229 34.678 29.8284 34.2745V0.736618C29.8265 0.472542 29.6835 0.230484 29.4543 0.0984229L29.4543 0.0992068Z" fill="white"/>
<path d="M43.6769 12.0385C43.5395 11.901 43.354 11.8245 43.1595 11.8245C42.9637 11.8232 42.777 11.901 42.6395 12.0385L32.743 21.935C32.4564 22.2216 32.4564 22.6858 32.743 22.9724C33.0296 23.259 33.4938 23.259 33.7804 22.9724L43.6769 13.0759C43.8143 12.9384 43.8921 12.7517 43.8922 12.5572C43.8922 12.3626 43.8144 12.1759 43.6769 12.0385Z" fill="white"/>
<path d="M32.7433 12.0387C32.6059 12.1761 32.5294 12.3616 32.5293 12.5561C32.528 12.7519 32.6059 12.9386 32.7433 13.0761L42.6398 22.9726C42.9264 23.2592 43.3906 23.2592 43.6772 22.9726C43.9638 22.686 43.9638 22.2218 43.6772 21.9352L33.7807 12.0387C33.6432 11.9012 33.4565 11.8234 33.262 11.8234C33.0675 11.8234 32.8808 11.9012 32.7433 12.0387Z" fill="white"/>
</g>

</svg>
