<svg width="31" height="30" fill="none" xmlns="http://www.w3.org/2000/svg"><path d="M23.003 11.205a2.015 2.015 0 0 0-1.403-1.44c-1.238-.341-6.201-.341-6.201-.341s-4.963 0-6.201.34c-.683.188-1.221.74-1.404 1.441-.331 1.271-.331 3.923-.331 3.923s0 2.651.331 3.922c.183.702.72 1.254 1.404 1.441 1.238.34 6.2.34 6.2.34s4.964 0 6.202-.34a2.015 2.015 0 0 0 1.403-1.44c.332-1.271.332-3.923.332-3.923s0-2.652-.332-3.923Z" fill="#fff"/><path d="M13.912 17.857v-4.96l3.968 2.48-3.968 2.48Z" fill="#18306c"/></svg>